# xmcd
#
# Track frame offsets:
#	150
#	12346
#	23279
#	34535
#	44359
#	55141
#	67653
#	80582
#	90754
#	105360
#	117085
#	128238
#	141230
#
# Disc length: 2009 seconds
#
# Revision: 0
# Processed by: cddbd v1.5.1PL2 Copyright (c) Steve Scherf et al.
# Submitted via: dBpowerAMP V4.0
#
DISCID=8f07d70d
DTITLE=Dan Pickett - 1949 Country Blues
DYEAR=1990
DGENRE=Blues
TTITLE0=Baby How Long
TTITLE1=You Got To Do Better
TTITLE2=Ride To A Funeral In AV-8
TTITLE3=Decoration Day
TTITLE4=Drivin' That Thing
TTITLE5=That's Grieving Me
TTITLE6=99 1/2 Won't Do
TTITLE7=Baby Don't You Want To Go
TTITLE8=Chicago Blues
TTITLE9=Something's  Gone Wrong
TTITLE10=Early One Morning
TTITLE11=Lemon Man
TTITLE12=Number Writer /Laughing Rag
EXTD=Collectables Records Corp.\nCOL-CD-5311
EXTT0=
EXTT1=
EXTT2=
EXTT3=
EXTT4=
EXTT5=
EXTT6=
EXTT7=
EXTT8=
EXTT9=
EXTT10=
EXTT11=
EXTT12=
PLAYORDER=
